<svg xmlns="http://www.w3.org/2000/svg" viewBox="0 0 64 64" width="64" height="64" role="img" aria-label="resto">
  <rect width="64" height="64" fill="#05012F"/>
  <g fill="none" stroke-width="2.4" stroke-linecap="square">
    <g stroke="#2222ff" transform="translate(-1.2 1.2)">
      <path d="M24 16 L40 16 L52 28 L52 44 L40 56 L24 56 L12 44 L12 28 Z"/>
      <path d="M26 9 L38 9"/>
      <path d="M32 9 L32 16"/>
      <path d="M32 36 L43 25"/>
    </g>
    <g stroke="#c0f600">
      <path d="M24 16 L40 16 L52 28 L52 44 L40 56 L24 56 L12 44 L12 28 Z"/>
      <path d="M26 9 L38 9"/>
      <path d="M32 9 L32 16"/>
      <path d="M32 36 L43 25"/>
    </g>
  </g>
</svg>
